<?xml version="1.0" encoding="UTF-8"?>
<svg version="1.1" viewBox="0 0 1396 1084" width="349" height="271" xmlns="http://www.w3.org/2000/svg">
<path transform="translate(1248,121)" d="m0 0 5 1v6l-12 5-8 9h-2l-2 4h-2v3h-2v2l5-2 7-5v5l-5 4-8 3-5 5-9 11h-2l-5 8 4-1 2 1 1-2 5 2 1 2 3 1 2 4 2 7 4 1 6 6 2 1-1 3-6 1-5-1-11 3-4 3h-5l-1-3h-2l1 4-4 4-9 6-8 5h-2l-2 8-4-1v-2l-5 1-12 6-12 9-4 2-1 2 2 1v5l3 1 3-1v3l-3 8h2l1-3 8-2-2 6-5 6-5 1-2-1h-7l1 2-9 11-10 4h-4l-2 4-6 5-11 7-17 11-10 8h-2l-2 5-2 2-7 1-2 10-8-1v2h2l1 8-6 1-2-1-1 2-9 1v2l-3 1-1 3v3h-2v-2h-2l-2 6h2v3l-7 3-7 6h-2l-2 5-6 11-9 11-7 7h-2l-2 4-5 5-16 12-5 5-7 6-5 3-9 8-10 8-7 7-8 7-10 11-6 4-6 9-5 5-9 10-11 14 1 3-4 1-2 5-2 1-1 3 4-2 5-6h2l2-6 2-1v3l4 1-3 6-4 2-1-2-5 5-4 3h-2l-1 4-4 8-6 3-1 6 11-12 6 1v3l5-2 3-2v3l-8 11-3 2-5-1v-4l-4 4h-2l-2 5-1 3h-5l-1-4-5 3h-2l-1 7-4 6-6 5-2 4-3 5h-2l-1 4-5 2-1 6-5-4v2h2v2h-3v5l-3 2-3-1v2l3 1-2 1 1 2 2-2 4 1-2 1-1 4-4 8-6-2 1-5-4 2v2l6 3-1 2h-3l-1 6h-6l-3-2 1 5-5 1 1 5 2 1v4l-4 1 1 5-2 5-1 3-3 1 1 8-6 2 1 3-5 2-2-4-3 1v4l-5 1v3h2l-2 7-5 5-11 2-1 7 1 7-5 5-4 2v-2l-2 1-2 11-4 6-1 7-6-2 1 2-2 2 3 4h-5l-2-1 2 3 1 2-1 6-5-2v2l-5-1 1 5-3 3-7 1-4 1v2l-5 2-1 6-1 3-1-2-2 1 1 4-3 1v6l-3 2-3 6h5l-1 3-3 1 3 1-4 5-6 4-2 2v8l-4 2-2 5-2 2-5 1-1-5-4 5-4 1v2h-3v3l-4-1 3 5v2h-4v2h3v4l1 4-5-2-2 3h-3l1 2h-3l-1 4h-2l1 5h-4l-1-3-4-2h-3l1 7h4l2 1v5l-5-1-1 7 2 6-7-2-6-4-1-2-1 5-3 2-5-1-1 4-1-2h-8l-3-3-3-1v2l-2 1-1 4-3 1-2-1 1 4h-5v-2l-2 2v4l-5 1-1-4-4 1-5-4v8l-7-1-2-4v-3l-3 1-2 4-7 1 2-4-5 1-2-3-1 2h-3l-1-5-1 4-1 2-4-1-4 2-8-1-6 1-6-3-8-1-8-9-7-8-10-10v-2l-3-1-7-8-10-12-5-5-9-7-1-5 1-3h-2l-1 2-5 2h-3v-2h-5l-1-6 3 1 1 3h3v-2h-2v-3h2v-3h-5v-2l-2-1-1 3-9-1-5-5 3-3 7 1 3 2-2-5-5-5-4-3-5-1-3 1v-2l-6-1v-1l5-1 1-3h2l-5-6-3-11-3-7h-9l-3 1h-4l-1-7-1 2h-2l-1-2-4 2-3-3 1-4 1-2-2-1-2 4-5 4-8 3-1-2 2-4h-2l-2 4-9 1-4-2v-3l-4-2-3-4-1-6h4l3 1 5-4 1 2 7-1 1 1 1-2h-2v-3l3 1 2 6 7 2h1l-2-4v-4l2-2v-3h2l-1-8h-8l-5-5-7-10-12-19-13-12-10-13-8-10-9-11-12-15-10-15-7-9-7-8-16-24-8-10-2-4h-2l-8-10-3-6-8-7h-3l-2-6-17-17-7-9-6-8-4-8-4-2-2-4v-3l-4-2-8-3-6-4-3-4 2-7 8-6 3 2 4 2-1-5 4-2v-6l4-1h8l1-2 6-1 3 1 5-1 1-2 9-4 6-2-1-5 3-2v9l5-2 7-2 3 3 3 1v-5l4 1 2-6-1-7 1-1h6l9 3 8 1 5-1 12 4 14-2 6-2h7l12 3 12 2 9 4 9 5-4 10 9-1 6 11 6 5 6 9 7 6 11 9 20 20 7 8 5 5 6 7 10 15 9 10 6 8 12 12 7 9 8 10 7 12 5 7 13 10 11 9 5-1 5 1 5-1 11-9 9-10 5-5 10-8 10-9 8-7 7-7 9-7 20-20 14-6 5-4 6-7 6-4 4-1 2-3h2v-2l5-1 5-5 6-5 7-3 4-4 10-6 5-5 11-8 12-12 16-11 6-5 7-8 11-9 2-5 10-4 11-9 6-4 14-11 9-5 12-9 9-9 8-4 20-15 13-8 11-6 10-8 14-8 10-6 9-7 8-6 3-4 9 2 2-6 4-1v-2l13-5 3-5 11-7 8-5 2-3 5-1 9-6 6-3 5-2 10-8 4-5 11-6 9-9 6-1 3 2 1-5 14-9 9-7 5-2h7l2-4 5-4 5 3v-6h2v3l6-3 7-8 8-4 12-7 1-1 8-1-3-6v-2l9-1h6l3-5 10-4h2l1-3 15-10 13-8 7-4 9-3 13-8 9-4 10-4 4-3 2 1-4 2 2 2 5-4 7-3 4-4 2-1zm-40 42-1 5 4-2-1-2zm3 0m-6 3-2 3 3 1 1-2zm-32 65 1 3 1-3zm-30 30m-977 191-1 5 2-2zm-45 17m672 145m-4 3 2 2 1-2zm-3 17m-2 4m-27 48m-9 4m4 0 1 2zm-38 36-2 5-4 4 3 1v-2h3l2-4 3-1-1-3zm-21 22v2l2-1zm2 2v2h2v-2zm2 2m-366 2v3l4 1-2-4zm367 0 1 2zm1 2m-371 0-4 1v2l9 3-1 4 7-2v-2h-3l1-3-2-1v2l-6-2zm365 2 2 4v-3zm-399 3m5-1 2 5 3 3 4-1v-2l3 1h3l1-2-1-3h-2v2l-6-1v4h-2l-2-4zm-3 4m23 1 1 2zm-11 2 1 2zm12 0m1 1 4 2-1-2zm-12 1 1 2zm385 0 1 3 1-3zm-379 1m23 1-1 2 3-1zm330 7-3 5-2 6-2 1 1 3h2l3-5v-2h2l1-7zm-3 2m7 3m-2 1m-1 2 1 2zm-302 21 1 3v-3zm251 46m-3 5m3 0 1 2zm-1 2m-16 8m1 1m5 6m-10 1v2h3v-2zm-4 13 1 4zm-3 2m-1 4v3h2v-3z" fill="#FEC844"/>
<path transform="translate(1248,121)" d="m0 0 5 1v6l-12 5-8 9h-2l-2 4h-2v3h-2v2l5-2 7-5v5l-5 4-8 3-5 5-9 11h-2l-5 8 4-1 2 1 1-2 5 2 1 2 3 1 2 4 2 7 4 1 6 6 2 1-1 3-6 1-5-1-11 3-4 3h-5l-1-3h-2l1 4-4 4-9 6-8 5h-2l-2 8-4-1v-2l-5 1-12 6-12 9-4 2-1 2 2 1v5l3 1 3-1v3l-3 8h2l1-3 8-2-2 6-5 6-5 1-2-1h-7l1 2-9 11-10 4h-4l-2 4-6 5-11 7-17 11-10 8h-2l-2 5-2 2-7 1-2 10-8-1v2h2l1 8-6 1-2-1-1 2-9 1v2l-3 1-1 3v3h-2v-2h-2l-2 6h2v3l-7 3-7 6h-2l1-5 4-6h-7l-9 9-3 1-2 4-6 2h-6v-9l-9-3-7 1-2-2 1-5 5-6 11-5 5-2h8l1-5h2v-2h9l2-6 4-4 6-1 2-6v-9l3-3 7-1 7-2 2-2 7-3 1-2h2l-1-5v-2l-7-5v-2l-10 2h-23l-6 4-12 4-1 3h-2l-1 5-5 5-6 1v2l-9 3-5 4h-2v2h-2l-1 5 6-1 2 2-3 1 1 5-6-2h-4l-4-3-6-1-8 3-14 8-4 6 2 4-1 4-6 4-5 5v-6h-2l-2 7-13 8-8 3-4 12-7 10h-2l-2 4-8 5-9 10-9 7-3 3-5 1-2 5-5 2-3 9-5 5-7 1h-9l-1 3-1-2-5 5h-2l-1 7-5 5-3 7-5 12-12 6-3 2-4 1v2l-8 6-5 7-9 6-7 2-4 3h-2l2 6 1 1 7 1 1 5h-2l-1 10-9 4-3 1v2l-13 4-11 8-1 4 1 3 3 3 1 7-8 7h-9l-6-1h-3v5l-4 4-4 2-2 6-4 6-4 2h-10l-8 4h-2l-1 3-9 5h-3l-2 4-5 7-9 3 1 2-9 1 2-2-7-5v-2h-4v2l-7 6-7 4-8-1h-3l-5-3h-7l-2-2v-3l-2-1 1-7 7-6 12-7 5-6h2l1-6 3-5 9-6 7-9 1-11 11-9-1-5-1-2-10-5-9 4-10 9h-2l-2 5h-2l-2 4h-2l-2 4-8 6-11 9-5 6-8 7-11 9-10 10-4 5-2 4-8 4-13 3-13 4-1 4 12 5 4 3 10 2 2 1h6l7-4 5 3 4 3-11 1-5 3h-7l-5-1-1 1 15 1 3-2-1 9v9l-1 1h-12l-6 2-5 10-6 3-8 1-2-1-1-7h-8l-8-6-3-5 1-6 4-7 6-4h2v-7l3-5h2v-2h-2v-6l-5 5-3 9-2 1-9 1-6 5 1 9-5 4-4 1-3-1-1-6h2l2-6 2-1-1-5-4-4-2-11-3-1-5-6v-2h-2l-3-10v-3h-2l-5-8-2-12-9-12-11-8-3-7 7-3-4-8-2-1v-2l-5-2v-2h-3l-8-11-4-5-2-3-8-3-5-5-7-3-9-7-5-4-1-3 2-6-4-5-5-1 2 11-1 3 2 1-1 3-5-2 2-5-4-8 1-6h-5l-1 1h-8l-6-3-2-3-10 1h-6l-4-6v-2l-4-2-5-2-16-1-5 4-6-1h-2l-20 2-15-1-7-1-10-3-8-5h-9l-13-5-6-1h-8l-8-2-10 2-3 1-1 6h2l2 2 1 2h7l16 3 5 3 9 8-1 4-10 1v4l5 2 9 6 4 2 1 5 4 2 3 5 6 9 3 2v2l4 2 10 11v5l-9 3-4-7-8-7h-3l-2-6-17-17-7-9-6-8-4-8-4-2-2-4v-3l-4-2-8-3-6-4-3-4 2-7 8-6 3 2 4 2-1-5 4-2v-6l4-1h8l1-2 6-1 3 1 5-1 1-2 9-4 6-2-1-5 3-2v9l5-2 7-2 3 3 3 1v-5l4 1 2-6-1-7 1-1h6l9 3 8 1 5-1 12 4 14-2 6-2h7l12 3 12 2 9 4 9 5-4 10 9-1 6 11 6 5 6 9 7 6 11 9 20 20 7 8 5 5 6 7 10 15 9 10 6 8 12 12 7 9 8 10 7 12 5 7 13 10 11 9 5-1 5 1 5-1 11-9 9-10 5-5 10-8 10-9 8-7 7-7 9-7 20-20 14-6 5-4 6-7 6-4 4-1 2-3h2v-2l5-1 5-5 6-5 7-3 4-4 10-6 5-5 11-8 12-12 16-11 6-5 7-8 11-9 2-5 10-4 11-9 6-4 14-11 9-5 12-9 9-9 8-4 20-15 13-8 11-6 10-8 14-8 10-6 9-7 8-6 3-4 9 2 2-6 4-1v-2l13-5 3-5 11-7 8-5 2-3 5-1 9-6 6-3 5-2 10-8 4-5 11-6 9-9 6-1 3 2 1-5 14-9 9-7 5-2h7l2-4 5-4 5 3v-6h2v3l6-3 7-8 8-4 12-7 1-1 8-1-3-6v-2l9-1h6l3-5 10-4h2l1-3 15-10 13-8 7-4 9-3 13-8 9-4 10-4 4-3 2 1-4 2 2 2 5-4 7-3 4-4 2-1zm-40 42-1 5 4-2-1-2zm3 0m-6 3-2 3 3 1 1-2zm-32 65 1 3 1-3zm-30 30m-977 191-1 5 2-2z" fill="#FED767"/>
<path transform="translate(864,520)" d="m0 0 3 1-11 14 1 3-4 1-2 5-2 1-1 3 4-2 5-6h2l2-6 2-1v3l4 1-3 6-4 2-1-2-5 5-4 3h-2l-1 4-4 8-6 3-1 6 11-12 6 1v3l5-2 3-2v3l-8 11-3 2-5-1v-4l-4 4h-2l-2 5-1 3h-5l-1-4-5 3h-2l-1 7-4 6-6 5-2 4-3 5h-2l-1 4-5 2-1 6-5-4v2h2v2h-3v5l-3 2-3-1v2l3 1-2 1 1 2 2-2 4 1-2 1-1 4-4 8-6-2 1-5-4 2v2l6 3-1 2h-3l-1 6h-6l-3-2 1 5-5 1 1 5 2 1v4l-4 1 1 5-2 5-1 3-3 1 1 8-6 2 1 3-5 2-2-4-3 1v4l-5 1v3h2l-2 7-5 5-11 2-1 7 1 7-5 5-4 2v-2l-2 1-2 11-4 6-1 7-6-2 1 2-2 2 3 4h-5l-2-1 2 3 1 2-1 6-5-2v2l-5-1 1 5-3 3-7 1-4 1v2l-5 2-1 6-1 3-1-2-2 1 1 4-3 1v6l-3 2-3 6h5l-1 3-3 1 3 1-4 5-6 4-2 2v8l-4 2-2 5-2 2-5 1-1-5-4 5-4 1v2h-3v3l-4-1 3 5v2h-4v2h3v4l1 4-5-2-2 3h-3l1 2h-3l-1 4h-2l1 5h-4l-1-3-4-2h-3l1 7h4l2 1v5l-5-1-1 7 2 6-7-2-6-4-1-2-1 5-3 2-5-1-1 4-1-2h-8l-3-3-3-1v2l-2 1-1 4-3 1-2-1 1 4h-5v-2l-2 2v4l-5 1-1-4-4 1-5-4v8l-7-1-2-4v-3l-3 1-2 4-7 1 2-4-5 1-2-3-1 2h-3l-1-7h7l6-5h2l1-3 10-10 8-6 6-9 4-8 14-15 3-5 4-3h2l2-4 6-5 15-15 3-4h2l2-4 8-8 8-7 8-9 2-4 15-15 6-10h2l2-4 12-12h2l2-4 5-4 7-8 8-7 9-5 4-4h2v-2l8-7 10-11 7-8 4-4h2l2-4 8-8h2l2-4 7-9 7-10 3-5 5-8 3-4h2l1-3 7-6 1-2 5-3h2l2-7 2-3h3l1-3 8-7 13-13 5-3 8-9h2l2-4 6-7 3-6 2-5 7-9 3-5 5-5 3-1zm-71 94m-4 3 2 2 1-2zm-3 17m-2 4m-27 48m-9 4m4 0 1 2zm-38 36-2 5-4 4 3 1v-2h3l2-4 3-1-1-3zm-21 22v2l2-1zm2 2v2h2v-2zm2 2m1 2 1 2zm1 2m-6 2 2 4v-3zm1 11 1 3 1-3zm-26 9-3 5-2 6-2 1 1 3h2l3-5v-2h2l1-7zm-3 2m7 3m-2 1m-1 2 1 2zm-51 67m-3 5m3 0 1 2zm-1 2m-16 8m1 1m5 6m-10 1v2h3v-2zm-4 13 1 4zm-3 2m-1 4v3h2v-3z" fill="#FFDF9E"/>
<path transform="translate(1202,175)" d="m0 0h3l-2 5 4-1 2 1 1-2 5 2 1 2 3 1 2 4 2 7 4 1 6 6 2 1-1 3-6 1-5-1-11 3-4 3h-5l-1-3h-2l1 4-4 4-9 6-8 5h-2l-2 8-4-1v-2l-5 1-3 1-1-6 2-4 8-2h4l2-4 6-2v-2h2v-2l3-3-5-3v-2l-9 4-1 2h-2l-2 6-8 5-11 4-12 7-10 7-14 8-5-1-2-5 1-3 7-3 6-3 11-7 12-13 10-7 13-8 7-9 4-1 1-3 9-5 7-3zm-29 56 1 3 1-3z" fill="#FFDF9E"/>
<path transform="translate(325,743)" d="m0 0 7 3 5 3v2l4 2 14 14 4 8 8 8 5 4 2 6h2l2 5 4 4v2h2l4 14 7 8 8 11 8 5 5 5 8 10 3 4v2h2l1 6-3 1-11-14-12-9-1-5 1-3h-2l-1 2-5 2h-3v-2h-5l-1-6 3 1 1 3h3v-2h-2v-3h2v-3h-5v-2l-2-1-1 3-9-1-5-5 3-3 7 1 3 2-2-5-5-5-4-3-5-1-3 1v-2l-6-1v-1l5-1 1-3h2l-5-6-3-11-3-7h-9l-3 1h-4l-1-7-1 2h-2l-1-2-4 2-3-3 1-4 1-2-2-1-2 4-5 4-8 3-1-2 2-4h-2l-2 4-9 1-4-2v-3l-4-2-3-4-1-6h4l3 1 5-4 1 2 7-1 1 1 1-2h-2v-3l3 1 2 6 7 2h1l-2-4v-4l2-2v-3h2l-1-4zm6 11v3l4 1-2-4zm-3 2-4 1v2l9 3-1 4 7-2v-2h-3l1-3-2-1v2l-6-2zm-34 5m5-1 2 5 3 3 4-1v-2l3 1h3l1-2-1-3h-2v2l-6-1v4h-2l-2-4zm-3 4m23 1 1 2zm-11 2 1 2zm12 0m1 1 4 2-1-2zm-12 1 1 2zm6 1m23 1-1 2 3-1zm29 36 1 3v-3z" fill="#FFD768"/>
<path transform="translate(1091,249)" d="m0 0h8l4 1 5 5h3l-2 6-2 5v6h7l5-1v-2l4-2 4 1 1 3h-2v3l-12 6-10 4-10 1v-2l-7 1-1 1h-14l-1-1-2 1-1-2-1 1-1 7-5 2-12-2-4-2v-14l2-3 13-3 5 2v2h5v-2l11-7 6-4 2-8z" fill="#FEC844"/>
<path transform="translate(864,520)" d="m0 0 3 1-11 14 1 3-4 1-2 5-2 1-1 3 4-2 5-6h2l2-6 2-1v3l4 1-3 6-4 2-1-2-5 5-4 3h-2l-1 4-4 8-6 3-1 6 11-12 6 1v3l5-2 3-2v3l-8 11-3 2-5-1v-4l-4 4h-2l-2 5-1 3h-5l-1-4-5 3h-2l-1 7-4 6-6 5-2 4-3 4h-6l-16 6-5 2-2 4-8 7-4 5-2-1 6-8h2l1-3 7-6 1-2 5-3h2l2-7 2-3h3l1-3 8-7 13-13 5-3 8-9h2l2-4 6-7 3-6 2-5 7-9 3-5 5-5 3-1z" fill="#FFDF9E"/>
<path transform="translate(399,725)" d="m0 0 6 2 4 4-1 5 1 10-2 5 14 15 5 12 2 8 3 2h5l2-2 8 1 4 5-1 4h-19l-6-4-8-5-2-1v-2l-5-2-5-3-4-7v-2l4-3h2l-1-2-6-2-4-4-9-3 2-4 8-1v-4l-6-4-1-4 2-3 2-6z" fill="#FFD767"/>
<path transform="translate(324,745)" d="m0 0 7 2 5 3 15 15 1 6h-2l-2 6 3 2-3 2h-7l-1-7-1 2h-2l-1-2-4 2-3-3 1-4 1-2-2-1-2 4-5 4-8 3-1-2 2-4h-2l-2 4-9 1-4-2v-3l-4-2-3-4-1-6h4l3 1 5-4 1 2 7-1 1 1 1-2h-2v-3l3 1 2 6 7 2h1l-2-4v-4l2-2v-3h2zm7 9v3l4 1-2-4zm-3 2-4 1v2l9 3-1 4 7-2v-2h-3l1-3-2-1v2l-6-2zm-34 5m5-1 2 5 3 3 4-1v-2l3 1h3l1-2-1-3h-2v2l-6-1v4h-2l-2-4zm-3 4m23 1 1 2zm-11 2 1 2zm12 0m1 1 4 2-1-2zm-12 1 1 2zm6 1m23 1-1 2 3-1z" fill="#FFDD8E"/>
<path transform="translate(847,560)" d="m0 0 6 1v3l5-2 3-2v3l-8 11-3 2-5-1v-4l-4 4h-2l-2 5-1 3h-5l-1-4-5 3h-2l-1 7-4 6-6 5-2 4-3 4h-6l-16 6-5 2-2 4-8 7-4 5-2-1 6-8h2l1-3 7-6 1-2 5-3h2l2-7 3-3 1 5 4-1 6-7 5-4h2l2-4 7-7 9-5h2l2-5 2-1 1 2z" fill="#FFD769"/>
<path transform="translate(1076,305)" d="m0 0 5 1 1 3-5 4h-2v2l-10 5-4 4-4 1-11 2-4 1-8 5-3 3v9l2 3-4 3h-2v2l-7 1-10-2v-5l6-3v2l5-5 6-5 5-9 3-2 11-3 5-5 6-5 12-5z" fill="#FEC844"/>
<path transform="translate(1006,516)" d="m0 0h6v6l4 8-1 6-6 10-7 1-7-4-4-8-2-7 3-5 5-4z" fill="#FEC948"/>
<path transform="translate(226,624)" d="m0 0h3v2h5l8 7 7 12 1 3h2l4 4 10 8 6 9 2 8v10l-5-5-8-10-9-11-12-15-10-15z" fill="#FFD767"/>
<path transform="translate(324,745)" d="m0 0 7 2 5 3 15 15 1 6h-2l-2 6 3 2-3 2h-7l-1-7-1 2h-2l-1-2-4 2-3-3 1-4 5-5h4v-2h-3v-3l-4 1-4-3h-3l-3-7 3-1zm7 9v3l4 1-2-4zm7 17-1 2 3-1z" fill="#FFDF9D"/>
<path transform="translate(587,830)" d="m0 0 3 1-1 12h-2l-1 5-5 8h-2v2l-7 6-2 3-5 1-4-5 1-4 7-5h2l2-5 10-16z" fill="#FFD767"/>
<path transform="translate(972,420)" d="m0 0 3 1-5 5-16 12-5 5-7 6-5 3-9 8-10 8-7 7-7 6-4-1 6-8 8-9 12-5 3-1v-2l5-3 6-8 2-2 4-2v-2l5-2 1-3h3l2-4 4-2v-2l6-4z" fill="#FFD769"/>
<path transform="translate(358,780)" d="m0 0 5 1v2l4 2 6 7 5 8 4 5-1 7-3 3-4-3-5-1-3 1v-2l-6-1v-1l5-1 1-3h2l-5-6-3-11zm9 27 1 3v-3z" fill="#FFDF9E"/>
<path transform="translate(788,621)" d="m0 0 3 1-1 3h-2v2h-2v2l3 1-2 1 1 2 2-2 4 1-2 1-1 4-4 8-6-2 1-5-4 2v2l6 3-1 2h-3l-1 6h-6l-2-2-1-7 6-12 4-5z" fill="#FFD76B"/>
<path transform="translate(257,811)" d="m0 0 12 1 2 4v6h2l-1 3-4 1-4 6-8-1-4-3 1-7 3-9z" fill="#FED769"/>
<path transform="translate(1123,200)" d="m0 0h8l-1 3-11 8-5 6-6 4-7 3h-8l1-4 6-4 3-1 1-3 3-1 2-3 11-6z" fill="#FFE09F"/>
<path transform="translate(1142,420)" d="m0 0h7l5 3 3 4v8l-8 4h-7l-3-3 1-10z" fill="#FECA4B"/>
<path transform="translate(1071,293)" d="m0 0h8l1 5-24 12-7 5-6 2 1-5 5-6 9-6 5-1v-2z" fill="#FFE09F"/>
<path transform="translate(847,560)" d="m0 0 6 1v3l5-2 3-2v3l-8 11-3 2-5-1v-4l-4 4h-2l-2 5-1 3h-2l-1-7 2-4 7-6z" fill="#FFD978"/>
<path transform="translate(1234,154)" d="m0 0 4 2-2 7-7 7-12 6h-4l2-5 7-9 8-6z" fill="#FFDF9E"/>
<path transform="translate(404,838)" d="m0 0 7 4 5 5 8 10 3 4v2h2l1 6-3 1-11-14-12-9-1-5z" fill="#FFD769"/>
<path transform="translate(777,536)" d="m0 0 15 5-1 5-3 3-15 1-4 2-2-3 4-3h2v-8z" fill="#FFD767"/>
<path transform="translate(375,822)" d="m0 0 7 1 3 2v-3l5 1 3 3 5 8 1 4 3 1-1 2-5 2h-3v-2h-5l-1-6 3 1 1 3h3v-2h-2v-3h2v-3h-5v-2l-2-1-1 3-9-1-5-5z" fill="#FFDF9E"/>
<path transform="translate(1145,258)" d="m0 0 2 2-4 9h2l1-3 8-2-2 6-5 6-5 1-2-1h-7l1 2-4 4-5-1-1-3 3-3 12-3 2-4 1-5-1-3z" fill="#FFE09F"/>
<path transform="translate(291,758)" d="m0 0 6 2h2l3 5v2h6l1 5 2 1-3 3h-6l-4-2v-3l-4-2-3-4-1-6z" fill="#FFDA79"/>
<path transform="translate(449,799)" d="m0 0 10 1h9v2h2l-2 4-9 4-9-3v-2h-3v-5z" fill="#FFD767"/>
<path transform="translate(285,377)" d="m0 0 8 1 6 3 2 2v3l-9 2h-10l-1-5z" fill="#FECA4A"/>
<path transform="translate(522,889)" d="m0 0v3l-6 7-8 6-7-1-1 8-5-1-4 2-5-1 8-4h4v-8l6-5 3 1v4l4-1 5-5 3-1v-2z" fill="#FFD76B"/>
<path transform="translate(932,453)" d="m0 0m-1 1m-2 1h2l-2 4-11 9-7 7-7 6-4-1 6-8 8-9 12-5 3-1z" fill="#FFD76A"/>
<path transform="translate(490,776)" d="m0 0 5 1v3h2l1 4-2 9-3 3-6-5 1-5-1-6z" fill="#FFD767"/>
<path transform="translate(1135,241)" d="m0 0 4 1-6 7-5 6-4 1-6-1 1-5 8-6z" fill="#FEC844"/>
<path transform="translate(297,711)" d="m0 0 3 2v2h2l3 8 5 3v2l4 2 7 8v2l-5 1-5-5-7-10-8-13z" fill="#FFD767"/>
<path transform="translate(1092,304)" d="m0 0h6l-4 4-19 12-8 6-1-2 2-4 9-6 7-6z" fill="#FEE09F"/>
<path transform="translate(1246,175)" d="m0 0 3 3-5 4-1 3h2l-1 4-8 5-2-3 1-6 5-7z" fill="#FFE09F"/>
<path transform="translate(343,873)" d="m0 0 7 1 5 4-1 5-4 4-5-1-1-8z" fill="#FED86F"/>
<path transform="translate(1070,242)" d="m0 0h5l1 4-3 3-12 7-3-2 4-6z" fill="#FFE09F"/>
<path transform="translate(515,669)" d="m0 0 9 1v3l-4 4-7 1-4-3 1-4z" fill="#FFD767"/>
<path transform="translate(833,612)" d="m0 0 4 2 1 4-5 5-10 2-2 2 1-5 5-4h2l2-4z" fill="#FFD978"/>
<path transform="translate(866,541)" d="m0 0h6v9l-5 5-5-1 1-7 2-3z" fill="#FFDE92"/>
<path transform="translate(785,631)" d="m0 0 3 2 2-2 4 1-2 1-1 4-4 8-6-2v-6h2l-1-4z" fill="#FFDE97"/>
<path transform="translate(1260,162)" d="m0 0 4 1 3 8-4 4-4 3-4-1 5-4-3-6-2-3h5z" fill="#FFDF9A"/>
<path transform="translate(1214,270)" d="m0 0h5l1 1v7l-5 4h-5l-1-4h2l2-7z" fill="#FFD974"/>
<path transform="translate(817,601)" d="m0 0h8v2h-2l-2 4-5 5h-6l1-6z" fill="#FFDA7A"/>
<path transform="translate(736,433)" d="m0 0h2l-2 4-13 11-7 5h-2l2-4 2-5 10-4z" fill="#FFE09F"/>
<path transform="translate(1222,154)" d="m0 0h5l-10 10-7 8h-2l-2 2-1-4 4-4h2v-5l7-1 2-4z" fill="#FFDA7D"/>
<path transform="translate(1247,194)" d="m0 0h2l1 3-5 5-6 2-4-3v-3l10-2z" fill="#FFDB82"/>
<path transform="translate(862,533)" d="m0 0 1 3 4 1-3 6-4 2-1-2-5 5h-2l2-5 3-3h2l2-6z" fill="#FFDA79"/>
<path transform="translate(324,780)" d="m0 0 7 1 6 4 3 3-1 3h-2l-1-2-4-1-9-6z" fill="#FFDE95"/>
<path transform="translate(291,378)" d="m0 0 7 2 3 3v3l-2 1h-7z" fill="#FED86E"/>
<path transform="translate(911,468)" d="m0 0 3 1-1 4-5 4-4 4-4-1 6-7z" fill="#FFE09F"/>
<path transform="translate(889,645)" d="m0 0h4l-1 7-3 4-4-1 1-5z" fill="#FECA49"/>
<path transform="translate(903,615)" d="m0 0h2l-2 4-6 8-4 1-1-4 4-4z" fill="#FECE55"/>
<path transform="translate(1055,520)" d="m0 0h1v5l-5 7h-3l-1-4 3-5z" fill="#FED15B"/>
<path transform="translate(302,756)" d="m0 0 1 2 7-1v3h-2v2h-2v4h-2l-5-7z" fill="#FFDC89"/>
<path transform="translate(780,644)" d="m0 0 4 1-1 2h-3l-1 6h-6l-2-3 3-3z" fill="#FFDF9B"/>
<path transform="translate(820,616)" d="m0 0h4l-1 5h-2v2l-5 2v-2h-2l-3 5-1-4 3-3 4-1z" fill="#FFE09F"/>
<path transform="translate(1106,405)" d="m0 0 2 2-3 8-4-1-1-1v-5l2-2z" fill="#FED361"/>
<path transform="translate(375,822)" d="m0 0h5l2 6 2 2h-7l-5-5z" fill="#FFD973"/>
<path transform="translate(305,726)" d="m0 0 4 2 5 5 3 5-1 3-5-5-6-8z" fill="#FFE09F"/>
<path transform="translate(340,762)" d="m0 0 3 2-2 4h-5v2l-4 1-1-4 4-3h5z" fill="#FFD86F"/>
<path transform="translate(578,827)" d="m0 0 2 1-3 1-1 3-7 6-5 5-3 1 2-4 4-2 2-4 4-2v-2z" fill="#FFD767"/>
<path transform="translate(834,570)" d="m0 0 1 2-1 6 1 3h-2v2h-2l-1-4-5 2 2-4 4-1 2-5z" fill="#FFD86E"/>
<path transform="translate(835,557)" d="m0 0v3l-5 5-3 4h-2l-2 4-3 3-3-1 14-14z" fill="#FFD767"/>
<path transform="translate(890,378)" d="m0 0 2 1-10 9-5 7-2-1v-3h2l2-4 4-4h3l1-3z" fill="#FED666"/>
<path transform="translate(388,676)" d="m0 0 8 1 2 2h-2v2l-9 1-1-4z" fill="#FFD767"/>
<path transform="translate(184,423)" d="m0 0 4 2 2 3-3 1v2l-4-1-2-2 1-4z" fill="#FFD974"/>
<path transform="translate(323,786)" d="m0 0 6 2 1 3-3 5-4-2z" fill="#FFDE98"/>
<path transform="translate(599,548)" d="m0 0 1 3 3 1-5 2-1 5-2-4h-5l1-2 7-4z" fill="#FEC844"/>
<path transform="translate(226,720)" d="m0 0h5l1 1v6h-5l-2-2z" fill="#FED35E"/>
<path transform="translate(1100,359)" d="m0 0 4 1-1 6-5 1-1-3z" fill="#FECF56"/>
<path transform="translate(1236,144)" d="m0 0 1 4-5 5-5 1-4-1 1-2 5-1z" fill="#FFDD91"/>
<path transform="translate(359,857)" d="m0 0 2 2-5 8-5 2v-4l6-4z" fill="#FFDA7A"/>
<path transform="translate(295,739)" d="m0 0 5 1-2 6-5 3-2-5z" fill="#FFDB84"/>
<path transform="translate(1043,347)" d="m0 0 2 4v4l-6 1-2-1 2-5 4-1z" fill="#FFE09F"/>
<path transform="translate(297,711)" d="m0 0 3 2v2h2l3 8 2 3h-3l-8-13z" fill="#FFD76C"/>
<path transform="translate(1222,154)" d="m0 0h5l-10 10-2 1v-2l-3 1-1-3 7-1 2-4z" fill="#FFE09F"/>
<path transform="translate(851,533)" d="m0 0v3l-6 7-3 8-2-2 4-8 3-5z" fill="#FFD767"/>
<path transform="translate(1e3 481)" d="m0 0h5l-2 5-5 2-1-4z" fill="#FFD768"/>
<path transform="translate(785,373)" d="m0 0 6 1v2h-2v2l-7 1v-3z" fill="#FFD870"/>
<path transform="translate(310,753)" d="m0 0 3 1 2 6 5 1v1h-6l-2-1v2l-4-1v-2h2l2-4h-2z" fill="#FFDF9A"/>
<path transform="translate(115,498)" d="m0 0 6 1 3 3v2h-5l-4-3z" fill="#FFD86E"/>
<path transform="translate(899,479)" d="m0 0 4 3-6 7-2-4 2-5z" fill="#FFD76A"/>
<path transform="translate(799,417)" d="m0 0 5 3v-2h16l-1 2-10 1h-10z" fill="#FEC844"/>
<path transform="translate(1238,169)" d="m0 0 2 1-1 8h-2l-1 3-1-2 1-2h-2l2-6z" fill="#FFE09F"/>
<path transform="translate(435,809)" d="m0 0h5l3 3v3h-5l-3-4z" fill="#FFD767"/>
<path transform="translate(365,794)" d="m0 0 4 2 2 5-2 2-6-4z" fill="#FFD973"/>
<path transform="translate(864,583)" d="m0 0h7v3l4-1v3h-7l-5-3z" fill="#FFDF9B"/>
<path transform="translate(864,520)" d="m0 0 3 1-3 4-7 4-4 3 2-4 5-5 3-1z" fill="#FFD86D"/>
<path transform="translate(937,607)" d="m0 0 6 2 1 4-4 1-3-4z" fill="#FECA4A"/>
<path transform="translate(92,476)" d="m0 0 4 2 1 2-2 3-5-1 1-4z" fill="#FFD86D"/>
<path transform="translate(358,826)" d="m0 0 5 4-1 3-6-1z" fill="#FFDB83"/>
<path transform="translate(324,780)" d="m0 0 7 1v4h2v2l-4-1-6-4z" fill="#FFDC87"/>
<path transform="translate(299,749)" d="m0 0h2v3l4 1-5 2v2l-4 2 2-6z" fill="#FFDB83"/>
<path transform="translate(935,580)" d="m0 0 3 1-2 4-4 2-2-2z" fill="#FECC4F"/>
<path transform="translate(898,246)" d="m0 0h5l1 2-1 3-3 1-3-2z" fill="#FFD76A"/>
<path transform="translate(193,580)" d="m0 0 5 2 1 3h2l1 6-5-5z" fill="#FFD870"/>
<path transform="translate(866,541)" d="m0 0h6v3l-6 1zm-1 4m-1 1m-1 1 2 1v2h-2z" fill="#FFDD8F"/>
<path transform="translate(817,601)" d="m0 0h8v2h-2l-1 3-1-2h-3l-1 3-2-2z" fill="#FFE09F"/>
<path transform="translate(742,770)" d="m0 0 4 1 1 3-1 2-5-1z" fill="#FFD975"/>
<path transform="translate(167,442)" d="m0 0h1l-1 10-2 2-1-5h2l-1-5z" fill="#FFDE96"/>
<path transform="translate(1040,441)" d="m0 0 3 1v5l-3 1-2-1 1-5z" fill="#FECF56"/>
<path transform="translate(512,780)" d="m0 0 6 1 2 5-7-2z" fill="#FFD767"/>
<path transform="translate(327,773)" d="m0 0 2 1v2l3 1-2 3h-3l-2-5z" fill="#FFDC87"/>
<path transform="translate(330,769)" d="m0 0 5 3-1 4-4-2-1-4z" fill="#FFDC89"/>
<path transform="translate(380,738)" d="m0 0 3 1 1 3-2 2-4-1v-4z" fill="#FFD767"/>
<path transform="translate(246,719)" d="m0 0 4 1 1 4-4 1-2-4z" fill="#FECF55"/>
<path transform="translate(738,702)" d="m0 0h5l-2 7h-2z" fill="#FFD978"/>
<path transform="translate(820,616)" d="m0 0h4l-1 5-4 1-2-2z" fill="#FFDA7A"/>
<path transform="translate(261,546)" d="m0 0 4 1 2 4-4 1-3-2z" fill="#FFD767"/>
<path transform="translate(100,427)" d="m0 0 2 1-1 6h-4l1-5z" fill="#FFD767"/>
<path transform="translate(1193,286)" d="m0 0h6l-2 4h-6z" fill="#FED670"/>
<path transform="translate(792,703)" d="m0 0 4 2-2 4h-3l-1-4z" fill="#FED361"/>
<path transform="translate(229,684)" d="m0 0 3 1v2h3v3l-5-1-2-4z" fill="#FFD769"/>
<path transform="translate(137,580)" d="m0 0 6 3 1 3h-4l-4-5z" fill="#FECD51"/>
<path transform="translate(594,505)" d="m0 0h2l-2 6h-4l2-4z" fill="#FECF55"/>
<path transform="translate(1057,495)" d="m0 0h2l1 5-4 1-1-3z" fill="#FFD769"/>
<path transform="translate(863,304)" d="m0 0 4 3v3h-4l-1-5z" fill="#FECB4C"/>
<path transform="translate(93,462)" d="m0 0 7 2-2 3-5-2z" fill="#FFDB80"/>
<path transform="translate(85,456)" d="m0 0 1 2 4 1-4 3-2-1z" fill="#FED773"/>
<path transform="translate(1105,392)" d="m0 0h2l1 5h-4z" fill="#FED262"/>
<path transform="translate(229,752)" d="m0 0h4l1 3-5 1-1-3z" fill="#FECF55"/>
<path transform="translate(572,911)" d="m0 0 3 1v4l-4-1z" fill="#FFDD8D"/>
<path transform="translate(363,812)" d="m0 0 4 1h3l-3 3-4-2z" fill="#FFDD8D"/>
<path transform="translate(926,519)" d="m0 0 2 1-4 6h-2l1-4z" fill="#FFD86E"/>
<path transform="translate(913,306)" d="m0 0 1 3-4 3-3-1z" fill="#FFDD91"/>
<path transform="translate(293,808)" d="m0 0h3l1 4h-4l-1-3z" fill="#FFD872"/>
<path transform="translate(316,755)" d="m0 0 3 2v3l-5-2v-2z" fill="#FFDE93"/>
<path transform="translate(197,720)" d="m0 0 3 1-1 3-4 1z" fill="#FED664"/>
<path transform="translate(853,596)" d="m0 0h2v5l-3 1v-5z" fill="#FFDE93"/>
<path transform="translate(164,438)" d="m0 0v3l-5 2-1-3z" fill="#FFDF9B"/>
<path transform="translate(1056,430)" d="m0 0h4v4l-4-1z" fill="#FECF59"/>
<path transform="translate(1056,184)" d="m0 0h3l-1 4-4-1z" fill="#FED056"/>
<path transform="translate(576,908)" d="m0 0 3 3-1 4-2-2z" fill="#FFE09F"/>
<path transform="translate(860,574)" d="m0 0 3 1-4 4-2-1z" fill="#FFDE97"/>
<path transform="translate(877,584)" d="m0 0 1 2h2v3h-3l-1-4z" fill="#FFDC89"/>
<path transform="translate(569,525)" d="m0 0 2 1-1 4-3-1z" fill="#FED056"/>
<path transform="translate(1154,258)" d="m0 0h4l-1 4-3-1z" fill="#FFE09F"/>
<path transform="translate(667,845)" d="m0 0 4 2-1 3h-2z" fill="#FFDB83"/>
<path transform="translate(660,838)" d="m0 0 5 1-1 3-4-2z" fill="#FFE09F"/>
<path transform="translate(875,535)" d="m0 0h2v4l-4-1z" fill="#FFE09F"/>
<path transform="translate(775,382)" d="m0 0h2l-2 4-4 1 2-3h2z" fill="#FFDE95"/>
<path transform="translate(1248,144)" d="m0 0 2 1-1 3h-3v-3z" fill="#FFDD91"/>
<path transform="translate(1121,17)" d="m0 0 4 1-1 2h-4z" fill="#FFE09F"/>
<path transform="translate(414,915)" d="m0 0h3l-1 4-3-3z" fill="#FED057"/>
<path transform="translate(656,836)" d="m0 0 2 2-7 2 2-3z" fill="#FFE09F"/>
<path transform="translate(816,681)" d="m0 0 2 1 1 5-2 1z" fill="#FFD767"/>
<path transform="translate(1045,432)" d="m0 0 4 2-1 2-3-1z" fill="#FED15A"/>
<path transform="translate(1098,421)" d="m0 0h3v3h-4z" fill="#FFD76C"/>
<path transform="translate(1e3 388)" d="m0 0 3 3-4 1z" fill="#FFDA7B"/>
<path transform="translate(634,853)" d="m0 0h2l-1 3h-4v-2z" fill="#FFE09F"/>
<path transform="translate(129,420)" d="m0 0 3 1v2h-4z" fill="#FED362"/>
<path transform="translate(904,312)" d="m0 0 2 1-2 3-3-1z" fill="#FFDF99"/>
<path transform="translate(890,280)" d="m0 0h3l-1 3h-3z" fill="#FFD767"/>
<path transform="translate(931,148)" d="m0 0 3 2-5 1v-2z" fill="#FFDC88"/>
<path transform="translate(592,525)" d="m0 0 2 2-5 2z" fill="#FFDB7F"/>
<path transform="translate(693,408)" d="m0 0 2 1-1 3h-2z" fill="#FED057"/>
<path transform="translate(587,906)" d="m0 0h2v3h-3z" fill="#FFDB83"/>
<path transform="translate(630,857)" d="m0 0 3 1-1 2-3-1z" fill="#FFE09F"/>
<path transform="translate(353,827)" d="m0 0 3 1-1 3h-2z" fill="#FFE09F"/>
<path transform="translate(370,820)" d="m0 0 3 1v2l-3 1z" fill="#FFE09F"/>
<path transform="translate(699,782)" d="m0 0 3 3-1 2-2-2z" fill="#FFE09F"/>
<path transform="translate(888,629)" d="m0 0h2l-1 3-3-1z" fill="#FED465"/>
<path transform="translate(803,631)" d="m0 0 2 1-2 3h-2z" fill="#FFE09F"/>
<path transform="translate(543,917)" d="m0 0 4 2-2 1-2-1z" fill="#FFE09F"/>
<path transform="translate(326,865)" d="m0 0h5l-1 2-4-1z" fill="#FECF5B"/>
<path transform="translate(663,822)" d="m0 0 1 3-2 3z" fill="#FFE09F"/>
<path transform="translate(355,822)" d="m0 0h2l-1 4z" fill="#FFDE97"/>
<path transform="translate(253,800)" d="m0 0h2v3l-3-1z" fill="#FFD767"/>
<path transform="translate(347,786)" d="m0 0 3 1v2l-3-1z" fill="#FFDA7F"/>
<path transform="translate(794,624)" d="m0 0 2 2-1 2h-2z" fill="#FFE09F"/>
<path transform="translate(824,593)" d="m0 0h2l-1 3h-2z" fill="#FFDE97"/>
<path transform="translate(1081,373)" d="m0 0h3l-1 3-2-1z" fill="#FFD977"/>
<path transform="translate(864,337)" d="m0 0 2 1-1 2-3-1z" fill="#FFDD8F"/>
<path transform="translate(519,917)" d="m0 0h2v3h-2z" fill="#FFE09F"/>
<path transform="translate(335,871)" d="m0 0 4 1-3 1z" fill="#FFDB83"/>
<path transform="translate(666,841)" d="m0 0h3v2h-3z" fill="#FFE09F"/>
<path transform="translate(716,751)" d="m0 0h3l-1 3z" fill="#FFE09F"/>
<path transform="translate(304,748)" d="m0 0h2v2l-3 1z" fill="#FFDE95"/>
<path transform="translate(911,600)" d="m0 0h2l-1 3-2-1z" fill="#FFD767"/>
<path transform="translate(820,598)" d="m0 0 2 1-4 2z" fill="#FFE09F"/>
<path transform="translate(604,529)" d="m0 0h2l-1 3-2-2z" fill="#FFDB83"/>
<path transform="translate(1016,512)" d="m0 0v3h-2v-2z" fill="#FFD767"/>
<path transform="translate(1087,320)" d="m0 0 2 1-1 2h-2z" fill="#FFDB83"/>
<path transform="translate(339,873)" d="m0 0 3 1-3 1z" fill="#FFDA7D"/>
<path transform="translate(674,814)" d="m0 0h2l-1 3z" fill="#FFE09F"/>
<path transform="translate(675,810)" d="m0 0h2l-1 3z" fill="#FFE09F"/>
<path transform="translate(251,804)" d="m0 0v3l-2-1z" fill="#FFDC88"/>
<path transform="translate(321,798)" d="m0 0h2v2l-3-1z" fill="#FFDA7D"/>
<path transform="translate(209,645)" d="m0 0 2 1v2h-2z" fill="#FED460"/>
<path transform="translate(796,629)" d="m0 0h2l-1 3z" fill="#FFE09F"/>
<path transform="translate(854,613)" d="m0 0 2 1-3 2z" fill="#FECF5D"/>
<path transform="translate(1024,367)" d="m0 0 3 3-3-1z" fill="#FFE09F"/>
<path transform="translate(1039,365)" d="m0 0h2v2l-3-1z" fill="#FFDE93"/>
<path transform="translate(943,287)" d="m0 0h2v2l-3-1z" fill="#FFE09F"/>
<path transform="translate(1147,256)" d="m0 0 4 2-4-1z" fill="#FFE09F"/>
<path transform="translate(1121,149)" d="m0 0 3 1-3 1z" fill="#FFD872"/>
<path transform="translate(498,913)" d="m0 0v3z" fill="#FFE09F"/>
<path transform="translate(584,909)" d="m0 0h2v2h-2z" fill="#FFE09F"/>
<path transform="translate(329,879)" d="m0 0h2v2h-2z" fill="#FFD767"/>
<path transform="translate(626,859)" d="m0 0 2 1h-3z" fill="#FFE09F"/>
<path transform="translate(356,851)" d="m0 0 2 1-1 2z" fill="#FFE09F"/>
<path transform="translate(386,849)" d="m0 0 2 3h-2z" fill="#FFE09F"/>
<path transform="translate(292,837)" d="m0 0h2v2h-2z" fill="#FEC844"/>
<path transform="translate(241,811)" d="m0 0 1 2-3-1z" fill="#FFDD91"/>
<path transform="translate(248,810)" d="m0 0 2 1h-3z" fill="#FFDD91"/>
<path transform="translate(319,784)" d="m0 0 3 2h-3z" fill="#FFE09F"/>
<path transform="translate(322,777)" d="m0 0h2v2h-2z" fill="#FFE09F"/>
<path transform="translate(710,757)" d="m0 0v3z" fill="#FFE09F"/>
<path transform="translate(240,678)" d="m0 0 2 1h-3z" fill="#FED35E"/>
<path transform="translate(835,632)" d="m0 0v3z" fill="#FFDD91"/>
<path transform="translate(152,443)" d="m0 0 1 2-3-1z" fill="#FFE09F"/>
<path transform="translate(737,411)" d="m0 0 2 1h-3z" fill="#FFD975"/>
<path transform="translate(1115,391)" d="m0 0 3 1h-3z" fill="#FED35E"/>
<path transform="translate(1073,389)" d="m0 0h2v2h-2z" fill="#FED35E"/>
<path transform="translate(1128,363)" d="m0 0v3z" fill="#FFD975"/>
<path transform="translate(856,344)" d="m0 0 1 2-3-1z" fill="#FFE09F"/>
<path transform="translate(951,282)" d="m0 0v3z" fill="#FFE09F"/>
<path transform="translate(1270,183)" d="m0 0 1 4z" fill="#FFE09F"/>
<path transform="translate(605,885)" d="m0 0 2 2h-2z" fill="#FFE09F"/>
<path transform="translate(602,882)" d="m0 0 1 2-2-1z" fill="#FFE09F"/>
<path transform="translate(646,865)" d="m0 0 1 2-2-1z" fill="#FFE09F"/>
<path transform="translate(625,857)" d="m0 0 2 1-2 1z" fill="#FFE09F"/>
<path transform="translate(379,840)" d="m0 0h2l-1 2z" fill="#FFE09F"/>
<path transform="translate(662,830)" d="m0 0 2 1-2 1z" fill="#FFE09F"/>
<path transform="translate(351,824)" d="m0 0h2l-1 2z" fill="#FFE09F"/>
<path transform="translate(251,810)" d="m0 0 1 2-2-1z" fill="#FFE09F"/>
<path transform="translate(667,803)" d="m0 0 2 2h-2z" fill="#FFE09F"/>
<path transform="translate(719,754)" d="m0 0 2 2h-2z" fill="#FFE09F"/>
<path transform="translate(295,752)" d="m0 0 2 1-2 1z" fill="#FFDD8C"/>
<path transform="translate(738,741)" d="m0 0 1 2-2-1z" fill="#FFDD8C"/>
<path transform="translate(937,623)" d="m0 0h2l-1 2z" fill="#FFD767"/>
<path transform="translate(907,602)" d="m0 0h2l-1 2z" fill="#FFE09F"/>
<path transform="translate(864,572)" d="m0 0 1 2-2-1z" fill="#FFE09F"/>
<path transform="translate(111,492)" d="m0 0h2l-1 2z" fill="#FFDD8C"/>
<path transform="translate(598,485)" d="m0 0 2 2h-2z" fill="#FED25B"/>
<path transform="translate(717,441)" d="m0 0" fill="#FFE09F"/>
<path transform="translate(721,433)" d="m0 0 2 1-2 1z" fill="#FFE09F"/>
<path transform="translate(1018,368)" d="m0 0h2l-1 2z" fill="#FFDA79"/>
<path transform="translate(1045,361)" d="m0 0 2 2h-2z" fill="#FFE09F"/>
<path transform="translate(1230,186)" d="m0 0 1 2-2-1z" fill="#FFE09F"/>
<path transform="translate(563,928)" d="m0 0" fill="#FFE09F"/>
<path transform="translate(523,918)" d="m0 0" fill="#FFE09F"/>
<path transform="translate(582,907)" d="m0 0 2 1z" fill="#FFE09F"/>
<path transform="translate(587,902)" d="m0 0" fill="#FFE09F"/>
<path transform="translate(644,853)" d="m0 0 2 1z" fill="#FFE09F"/>
<path transform="translate(382,851)" d="m0 0" fill="#FFE09F"/>
<path transform="translate(634,850)" d="m0 0 2 1z" fill="#FFE09F"/>
<path transform="translate(380,849)" d="m0 0 2 1z" fill="#FFE09F"/>
<path transform="translate(376,839)" d="m0 0 2 1z" fill="#FFE09F"/>
<path transform="translate(667,820)" d="m0 0" fill="#FFE09F"/>
<path transform="translate(276,805)" d="m0 0" fill="#FFDB83"/>
<path transform="translate(306,801)" d="m0 0 2 1z" fill="#FFE09F"/>
<path transform="translate(308,790)" d="m0 0" fill="#FFDB83"/>
<path transform="translate(348,783)" d="m0 0 2 1z" fill="#FFE09F"/>
<path transform="translate(278,774)" d="m0 0 2 1z" fill="#FFD767"/>
<path transform="translate(721,757)" d="m0 0 2 1z" fill="#FFDB83"/>
<path transform="translate(306,754)" d="m0 0" fill="#FFE09F"/>
<path transform="translate(302,746)" d="m0 0" fill="#FFE09F"/>
<path transform="translate(722,740)" d="m0 0 2 1z" fill="#FFE09F"/>
<path transform="translate(797,638)" d="m0 0" fill="#FFE09F"/>
<path transform="translate(891,628)" d="m0 0 2 1z" fill="#FFDB83"/>
<path transform="translate(856,600)" d="m0 0" fill="#FFE09F"/>
<path transform="translate(826,590)" d="m0 0" fill="#FFE09F"/>
<path transform="translate(858,545)" d="m0 0 2 1z" fill="#FFE09F"/>
<path transform="translate(863,532)" d="m0 0 2 1z" fill="#FFE09F"/>
<path transform="translate(607,532)" d="m0 0 2 1z" fill="#FFE09F"/>
<path transform="translate(866,530)" d="m0 0" fill="#FFE09F"/>
<path transform="translate(592,493)" d="m0 0 2 1z" fill="#FFD767"/>
<path transform="translate(115,468)" d="m0 0" fill="#FFE09F"/>
<path transform="translate(904,318)" d="m0 0" fill="#FFE09F"/>
<path transform="translate(1143,289)" d="m0 0 2 1z" fill="#FFE09F"/>
<path transform="translate(1203,280)" d="m0 0" fill="#FFE09F"/>
<path transform="translate(1150,260)" d="m0 0 2 1z" fill="#FFE09F"/>
<path transform="translate(1251,142)" d="m0 0" fill="#FFE09F"/>
<path transform="translate(544,922)" d="m0 0" fill="#FFE09F"/>
<path transform="translate(569,915)" d="m0 0" fill="#FFE09F"/>
<path transform="translate(582,909)" d="m0 0" fill="#FFE09F"/>
<path transform="translate(500,907)" d="m0 0" fill="#FFE09F"/>
<path transform="translate(593,903)" d="m0 0" fill="#FFE09F"/>
<path transform="translate(610,891)" d="m0 0" fill="#FFE09F"/>
<path transform="translate(609,890)" d="m0 0" fill="#FFE09F"/>
<path transform="translate(608,889)" d="m0 0" fill="#FFE09F"/>
<path transform="translate(623,882)" d="m0 0" fill="#FFE09F"/>
<path transform="translate(373,866)" d="m0 0" fill="#FFD767"/>
<path transform="translate(624,861)" d="m0 0" fill="#FFE09F"/>
<path transform="translate(669,843)" d="m0 0" fill="#FFE09F"/>
<path transform="translate(398,842)" d="m0 0" fill="#FFE09F"/>
<path transform="translate(372,835)" d="m0 0" fill="#FFE09F"/>
<path transform="translate(665,820)" d="m0 0" fill="#FFE09F"/>
<path transform="translate(666,819)" d="m0 0" fill="#FFE09F"/>
<path transform="translate(664,816)" d="m0 0" fill="#FFE09F"/>
<path transform="translate(254,810)" d="m0 0" fill="#FFE09F"/>
<path transform="translate(324,799)" d="m0 0" fill="#FFE09F"/>
<path transform="translate(317,797)" d="m0 0" fill="#FFE09F"/>
<path transform="translate(357,791)" d="m0 0" fill="#FFE09F"/>
<path transform="translate(331,790)" d="m0 0" fill="#FFE09F"/>
<path transform="translate(334,779)" d="m0 0" fill="#FFE09F"/>
<path transform="translate(703,763)" d="m0 0" fill="#FFE09F"/>
<path transform="translate(708,761)" d="m0 0" fill="#FFE09F"/>
<path transform="translate(715,748)" d="m0 0" fill="#FFE09F"/>
<path transform="translate(307,748)" d="m0 0" fill="#FFE09F"/>
<path transform="translate(300,734)" d="m0 0" fill="#FFE09F"/>
<path transform="translate(299,733)" d="m0 0" fill="#FFE09F"/>
<path transform="translate(786,714)" d="m0 0" fill="#FFD767"/>
<path transform="translate(805,700)" d="m0 0" fill="#FFD767"/>
<path transform="translate(791,665)" d="m0 0" fill="#FFE09F"/>
<path transform="translate(793,636)" d="m0 0" fill="#FFE09F"/>
<path transform="translate(791,628)" d="m0 0" fill="#FFE09F"/>
<path transform="translate(880,626)" d="m0 0" fill="#FFE09F"/>
<path transform="translate(814,625)" d="m0 0" fill="#FFE09F"/>
<path transform="translate(957,614)" d="m0 0" fill="#FFD767"/>
<path transform="translate(827,589)" d="m0 0" fill="#FFE09F"/>
<path transform="translate(828,588)" d="m0 0" fill="#FFE09F"/>
<path transform="translate(872,582)" d="m0 0" fill="#FFE09F"/>
<path transform="translate(853,559)" d="m0 0" fill="#FFE09F"/>
<path transform="translate(849,552)" d="m0 0" fill="#FFE09F"/>
<path transform="translate(857,546)" d="m0 0" fill="#FFE09F"/>
<path transform="translate(585,542)" d="m0 0" fill="#FFE09F"/>
<path transform="translate(596,538)" d="m0 0" fill="#FFE09F"/>
<path transform="translate(599,535)" d="m0 0" fill="#FFE09F"/>
<path transform="translate(931,504)" d="m0 0" fill="#FFE09F"/>
<path transform="translate(932,502)" d="m0 0" fill="#FFE09F"/>
<path transform="translate(603,491)" d="m0 0" fill="#FFD767"/>
<path transform="translate(960,481)" d="m0 0" fill="#FFD767"/>
<path transform="translate(87,472)" d="m0 0" fill="#FFD767"/>
<path transform="translate(114,467)" d="m0 0" fill="#FFE09F"/>
<path transform="translate(167,432)" d="m0 0" fill="#FFE09F"/>
<path transform="translate(655,430)" d="m0 0" fill="#FFD767"/>
<path transform="translate(735,413)" d="m0 0" fill="#FFD767"/>
<path transform="translate(739,410)" d="m0 0" fill="#FFD767"/>
<path transform="translate(743,407)" d="m0 0" fill="#FFE09F"/>
<path transform="translate(744,406)" d="m0 0" fill="#FFE09F"/>
<path transform="translate(745,405)" d="m0 0" fill="#FFE09F"/>
<path transform="translate(746,404)" d="m0 0" fill="#FFE09F"/>
<path transform="translate(1056,397)" d="m0 0" fill="#FFD767"/>
<path transform="translate(1057,396)" d="m0 0" fill="#FFD767"/>
<path transform="translate(1059,393)" d="m0 0" fill="#FFD767"/>
<path transform="translate(1121,390)" d="m0 0" fill="#FFD767"/>
<path transform="translate(1028,369)" d="m0 0" fill="#FFE09F"/>
<path transform="translate(1033,362)" d="m0 0" fill="#FFE09F"/>
<path transform="translate(1034,361)" d="m0 0" fill="#FFE09F"/>
<path transform="translate(1036,359)" d="m0 0" fill="#FFE09F"/>
<path transform="translate(1041,358)" d="m0 0" fill="#FFE09F"/>
<path transform="translate(1046,348)" d="m0 0" fill="#FFE09F"/>
<path transform="translate(1074,337)" d="m0 0" fill="#FFE09F"/>
<path transform="translate(879,326)" d="m0 0" fill="#FFE09F"/>
<path transform="translate(948,286)" d="m0 0" fill="#FFE09F"/>
<path transform="translate(949,285)" d="m0 0" fill="#FFE09F"/>
<path transform="translate(952,281)" d="m0 0" fill="#FFE09F"/>
<path transform="translate(1152,262)" d="m0 0" fill="#FFE09F"/>
<path transform="translate(977,244)" d="m0 0" fill="#FFD767"/>
<path transform="translate(978,243)" d="m0 0" fill="#FFD767"/>
<path transform="translate(1242,195)" d="m0 0" fill="#FFE09F"/>
<path transform="translate(1254,188)" d="m0 0" fill="#FFE09F"/>
<path transform="translate(1215,179)" d="m0 0" fill="#FFE09F"/>
<path transform="translate(1239,167)" d="m0 0" fill="#FFE09F"/>
</svg>
