<?xml version="1.0" encoding="UTF-8"?>
<svg data-bbox="23.333 23.334 533.334 533.333" xmlns="http://www.w3.org/2000/svg" viewBox="0 0 567 584" height="584" width="567" data-type="color">
    <g>
        <path fill="#100F0D" d="M556.667 290c0-147.276-119.391-266.666-266.667-266.666S23.333 142.724 23.333 290c0 133.101 97.516 243.422 225 263.427V367.084h-67.708V290h67.708v-58.75c0-66.833 39.812-103.75 100.724-103.75 29.176 0 59.693 5.209 59.693 5.209v65.625h-33.626c-33.126 0-43.457 20.555-43.457 41.644V290h73.958l-11.823 77.084h-62.135v186.343c127.484-20.005 225-130.326 225-263.427" data-color="1"/>
        <path fill="#ffffff" d="M393.802 367.083 405.625 290h-73.958v-50.023c0-21.088 10.33-41.644 43.457-41.644h33.626v-65.625s-30.517-5.208-59.693-5.208c-60.912 0-100.724 36.916-100.724 103.75V290h-67.708v77.083h67.708v186.344a269 269 0 0 0 41.667 3.24c14.175 0 28.09-1.11 41.667-3.24V367.083z" data-color="2"/>
    </g>
</svg>
