<?xml version="1.0" encoding="UTF-8"?>
<svg data-bbox="0 0 461 470" xmlns="http://www.w3.org/2000/svg" viewBox="0 0 461 470" height="470" width="461" data-type="shape">
    <g>
        <path d="m458.288 198.781-2.373-10.058H237.279v92.554h130.617c-13.559 64.414-76.494 98.317-127.905 98.317-37.4 0-76.833-15.708-102.934-41.022-26.779-25.992-43.84-64.302-43.84-103.742 0-38.987 17.513-77.975 43.049-103.628 25.423-25.54 63.953-40.005 102.256-40.005 43.841 0 75.252 23.28 87.003 33.903l65.76-65.432C371.964 42.717 318.971 0 236.376 0 172.649 0 111.521 24.41 66.89 68.935 22.824 112.782 0 176.179 0 234.943S21.581 354.054 64.291 398.24C109.94 445.364 174.57 470 241.121 470c60.563 0 117.962-23.732 158.864-66.788C440.21 360.834 461 302.183 461 240.707c0-25.879-2.599-41.248-2.712-41.926"/>
    </g>
</svg>
