<?xml version="1.0" encoding="UTF-8"?>
<svg data-bbox="52.833 52.834 528.334 528.333" xmlns="http://www.w3.org/2000/svg" viewBox="0 0 634 634" height="634" width="634" data-type="shape">
    <g>
        <path d="M317 52.834c-71.748 0-80.729.316-108.916 1.584-28.107 1.295-47.312 5.76-64.113 12.284a129.5 129.5 0 0 0-46.81 30.459 129.5 129.5 0 0 0-30.459 46.81c-6.525 16.801-10.99 36.006-12.284 64.113-1.294 28.187-1.585 37.169-1.585 108.916 0 71.748.29 80.73 1.585 108.916 1.295 28.108 5.76 47.312 12.284 64.113a129.5 129.5 0 0 0 30.459 46.811 129.5 129.5 0 0 0 46.81 30.458c16.801 6.525 36.006 10.99 64.113 12.284 28.187 1.268 37.168 1.585 108.916 1.585s80.729-.317 108.916-1.585c28.107-1.294 47.312-5.759 64.113-12.284a129.5 129.5 0 0 0 46.811-30.458 129.5 129.5 0 0 0 30.458-46.811c6.525-16.801 10.989-36.005 12.284-64.113 1.268-28.186 1.585-37.168 1.585-108.916s-.317-80.729-1.585-108.916c-1.295-28.107-5.759-47.312-12.284-64.113a129.5 129.5 0 0 0-30.458-46.81 129.5 129.5 0 0 0-46.811-30.459c-16.801-6.525-36.006-10.99-64.113-12.283-28.187-1.268-37.168-1.585-108.916-1.585m0 47.602c70.533 0 78.88.265 106.723 1.533 25.783 1.188 39.758 5.468 49.083 9.087 12.31 4.808 21.133 10.54 30.379 19.76 9.246 9.245 14.952 18.069 19.759 30.379 3.593 9.325 7.925 23.299 9.088 49.055 1.268 27.87 1.532 36.191 1.532 106.75 0 70.533-.264 78.88-1.532 106.724-1.189 25.782-5.495 39.757-9.088 49.082a81.9 81.9 0 0 1-19.759 30.379c-9.246 9.246-18.069 14.952-30.379 19.76-9.325 3.592-23.3 7.925-49.056 9.087-27.843 1.268-36.191 1.532-106.75 1.532-70.532 0-78.907-.264-106.723-1.532-25.783-1.189-39.757-5.495-49.082-9.087a81.85 81.85 0 0 1-30.38-19.76 81.8 81.8 0 0 1-19.759-30.379c-3.619-9.325-7.925-23.3-9.088-49.056-1.268-27.87-1.532-36.191-1.532-106.75 0-70.532.264-78.88 1.532-106.723 1.189-25.783 5.469-39.757 9.088-49.082 4.808-12.31 10.54-21.134 19.759-30.379 9.246-9.246 18.069-14.952 30.38-19.76 9.325-3.619 23.299-7.925 49.055-9.087 27.87-1.268 36.191-1.533 106.75-1.533m0 304.611a88.046 88.046 0 1 1 0-176.092 88.046 88.046 0 0 1 0 176.092m0-223.696a135.65 135.65 0 1 0-.003 271.3 135.65 135.65 0 0 0 .003-271.3m172.712-5.363a31.703 31.703 0 0 1-31.7 31.7 31.7 31.7 0 1 1 31.7-31.7"/>
    </g>
</svg>
