<?xml version="1.0" encoding="UTF-8"?>
<svg data-bbox="0 0 526 503" xmlns="http://www.w3.org/2000/svg" viewBox="0 0 526 503" height="503" width="526" data-type="shape">
    <g>
        <g clip-path="url(#274bf91b-5760-45c2-9e84-27aa30c51ecf)">
            <path d="M0 58.43q0-25.405 17.77-41.917T63.973 0q27.925 0 45.187 16.26 17.77 16.766 17.771 43.695 0 24.388-17.263 40.646-17.77 16.767-46.71 16.767h-.508q-27.925 0-45.188-16.767Q0 83.834 0 58.43M6.6 503V163.602h112.715V503zm175.164 0h112.715V313.486q0-17.784 4.062-27.437 7.107-17.275 21.578-29.214t36.302-11.94q56.865 0 56.865 76.72V503H526V308.405q0-75.196-35.541-114.064t-93.928-38.868q-65.496 0-102.052 56.397v1.016h-.508l.508-1.016v-48.268H181.764q1.016 16.259 1.016 101.108T181.764 503"/>
        </g>
        <defs fill="none">
            <clipPath id="274bf91b-5760-45c2-9e84-27aa30c51ecf">
                <path fill="#ffffff" d="M526 0v503H0V0z"/>
            </clipPath>
        </defs>
    </g>
</svg>
