<?xml version="1.0" encoding="UTF-8"?>
<svg data-bbox="0 118.875 636 435.875" xmlns="http://www.w3.org/2000/svg" viewBox="0 0 636 634" height="634" width="636" data-type="shape">
    <g>
        <path d="M608.97 160.877c-17.252-30.59-35.974-36.217-74.094-38.356-38.08-2.576-133.838-3.646-216.797-3.646-83.117 0-178.914 1.07-216.955 3.606-38.04 2.179-56.803 7.766-74.213 38.396C9.142 191.428 0 244.05 0 336.694v.317c0 92.247 9.143 145.265 26.91 175.499 17.411 30.59 36.134 36.138 74.174 38.713 38.081 2.219 133.878 3.527 216.995 3.527 82.959 0 178.716-1.308 216.837-3.487 38.12-2.576 56.842-8.123 74.094-38.714C626.937 482.316 636 429.297 636 337.05v-.317c0-92.683-9.063-145.305-27.03-175.856M238.5 455.688v-237.75l198.75 118.874z" clip-rule="evenodd" fill-rule="evenodd"/>
    </g>
</svg>
